<?xml version="1.0" encoding="UTF-8" standalone="no"?>
<!-- Created with Inkscape (http://www.inkscape.org/) -->

<svg
   xmlns:dc="http://purl.org/dc/elements/1.1/"
   xmlns:cc="http://creativecommons.org/ns#"
   xmlns:rdf="http://www.w3.org/1999/02/22-rdf-syntax-ns#"
   xmlns:svg="http://www.w3.org/2000/svg"
   xmlns="http://www.w3.org/2000/svg"
   xmlns:xlink="http://www.w3.org/1999/xlink"
   xmlns:sodipodi="http://sodipodi.sourceforge.net/DTD/sodipodi-0.dtd"
   xmlns:inkscape="http://www.inkscape.org/namespaces/inkscape"
   inkscape:output_extension="org.inkscape.output.svg.inkscape"
   sodipodi:docname="working.svg"
   version="1.0"
   inkscape:version="0.48.2 r9819"
   sodipodi:version="0.32"
   id="svg2"
   height="220.0011"
   width="220.00058">
  <sodipodi:namedview
     id="base"
     pagecolor="#ffffff"
     bordercolor="#666666"
     borderopacity="1.0"
     gridtolerance="10"
     guidetolerance="10"
     objecttolerance="10"
     inkscape:pageopacity="0.0"
     inkscape:pageshadow="2"
     inkscape:zoom="1"
     inkscape:cx="12.674061"
     inkscape:cy="193.46326"
     inkscape:document-units="px"
     inkscape:current-layer="svg2"
     showgrid="true"
     inkscape:object-paths="true"
     inkscape:object-nodes="true"
     inkscape:snap-global="true"
     inkscape:window-width="1024"
     inkscape:window-height="712"
     inkscape:window-x="0"
     inkscape:window-y="22"
     showguides="true"
     inkscape:guide-bbox="true"
     fit-margin-top="10"
     fit-margin-left="10"
     fit-margin-right="10"
     fit-margin-bottom="10"
     inkscape:window-maximized="0">
    <inkscape:grid
       snapvisiblegridlinesonly="true"
       empspacing="4"
       spacingy="10px"
       spacingx="10px"
       enabled="true"
       visible="false"
       id="grid3170"
       type="xygrid" />
  </sodipodi:namedview>
  <defs
     id="defs4">
    <linearGradient
       id="linearGradient3357">
      <stop
         id="stop3359"
         offset="0"
         style="stop-color:#ffffff;stop-opacity:0;" />
      <stop
         style="stop-color:#ffffff;stop-opacity:0;"
         offset="0.80555558"
         id="stop3365" />
      <stop
         id="stop3361"
         offset="1"
         style="stop-color:#000000;stop-opacity:0.73451328;" />
    </linearGradient>
    <linearGradient
       id="linearGradient3325">
      <stop
         id="stop3327"
         offset="0"
         style="stop-color:#000000;stop-opacity:1;" />
      <stop
         id="stop3329"
         offset="1"
         style="stop-color:#000000;stop-opacity:1;" />
    </linearGradient>
    <linearGradient
       id="linearGradient3313"
       inkscape:collect="always">
      <stop
         id="stop3315"
         offset="0"
         style="stop-color:#000000;stop-opacity:1;" />
      <stop
         id="stop3317"
         offset="1"
         style="stop-color:#000000;stop-opacity:0;" />
    </linearGradient>
    <linearGradient
       id="linearGradient3299">
      <stop
         id="stop3301"
         offset="0"
         style="stop-color:#000000;stop-opacity:1;" />
      <stop
         style="stop-color:#000000;stop-opacity:1;"
         offset="0.8888889"
         id="stop3339" />
      <stop
         id="stop3303"
         offset="1"
         style="stop-color:#000000;stop-opacity:1;" />
    </linearGradient>
    <linearGradient
       id="linearGradient3195">
      <stop
         id="stop3197"
         offset="0"
         style="stop-color:#ffffff;stop-opacity:1;" />
      <stop
         style="stop-color:#ffffff;stop-opacity:1;"
         offset="0.94444442"
         id="stop3205" />
      <stop
         id="stop3199"
         offset="1"
         style="stop-color:#000000;stop-opacity:1;" />
    </linearGradient>
    <inkscape:perspective
       id="perspective10"
       inkscape:persp3d-origin="372.04724 : 350.78739 : 1"
       inkscape:vp_z="744.09448 : 526.18109 : 1"
       inkscape:vp_y="0 : 1000 : 0"
       inkscape:vp_x="0 : 526.18109 : 1"
       sodipodi:type="inkscape:persp3d" />
    <inkscape:perspective
       sodipodi:type="inkscape:persp3d"
       inkscape:vp_x="0 : 526.18109 : 1"
       inkscape:vp_y="0 : 1000 : 0"
       inkscape:vp_z="744.09448 : 526.18109 : 1"
       inkscape:persp3d-origin="372.04724 : 350.78739 : 1"
       id="perspective3162" />
    <linearGradient
       gradientUnits="userSpaceOnUse"
       y2="500.36517"
       x2="444.54434"
       y1="500.36517"
       x1="364.95505"
       id="linearGradient3305"
       xlink:href="#linearGradient3299"
       inkscape:collect="always" />
    <radialGradient
       gradientUnits="userSpaceOnUse"
       gradientTransform="matrix(1,0,0,1.1815,0,-90.7623)"
       r="39.179096"
       fy="500.06021"
       fx="404.74969"
       cy="500.06021"
       cx="404.74969"
       id="radialGradient3319"
       xlink:href="#linearGradient3313"
       inkscape:collect="always" />
    <radialGradient
       gradientUnits="userSpaceOnUse"
       r="100"
       fy="100"
       fx="100"
       cy="100"
       cx="100"
       id="radialGradient3363"
       xlink:href="#linearGradient3357"
       inkscape:collect="always" />
    <linearGradient
       gradientUnits="userSpaceOnUse"
       y2="500.36517"
       x2="444.54434"
       y1="500.36517"
       x1="364.95505"
       id="linearGradient3305-614"
       xlink:href="#linearGradient3299-817"
       inkscape:collect="always" />
    <linearGradient
       id="linearGradient3299-817">
      <stop
         id="stop3318"
         offset="0"
         style="stop-color:#000000;stop-opacity:1;" />
      <stop
         style="stop-color:#000000;stop-opacity:1;"
         offset="0.8888889"
         id="stop3320" />
      <stop
         id="stop3322"
         offset="1"
         style="stop-color:#000000;stop-opacity:1;" />
    </linearGradient>
    <radialGradient
       gradientUnits="userSpaceOnUse"
       r="100"
       fy="100"
       fx="100"
       cy="100"
       cx="100"
       id="radialGradient3363-300"
       xlink:href="#linearGradient3357-941"
       inkscape:collect="always" />
    <linearGradient
       id="linearGradient3357-941">
      <stop
         id="stop3326"
         offset="0"
         style="stop-color:#ffffff;stop-opacity:0;" />
      <stop
         style="stop-color:#ffffff;stop-opacity:0;"
         offset="0.80555558"
         id="stop3328" />
      <stop
         id="stop3330"
         offset="1"
         style="stop-color:#000000;stop-opacity:0.73451328;" />
    </linearGradient>
  </defs>
  <metadata
     id="metadata7">
    <rdf:RDF>
      <cc:Work
         rdf:about="">
        <dc:format>image/svg+xml</dc:format>
        <dc:type
           rdf:resource="http://purl.org/dc/dcmitype/StillImage" />
        <dc:title></dc:title>
      </cc:Work>
    </rdf:RDF>
  </metadata>
  <g
     transform="translate(-268,-344.362)"
     id="layer1"
     inkscape:groupmode="layer"
     inkscape:label="Layer 1">
    <path
       inkscape:connector-curvature="0"
       sodipodi:nodetypes="cssccssc"
       inkscape:transform-center-y="46.600787"
       inkscape:transform-center-x="-26.749727"
       id="path3168"
       d="m 378.00001,453.77 c 0,0 -13.747,8.51719 -12.32644,23.78704 1.41873,15.24987 26.71708,39.5148 35.32986,50.73782 5.07589,6.61427 7.40527,13.48249 8.50694,18.05556 12.91826,-4.42883 24.59846,-11.54325 34.41842,-20.61631 -4.16289,-3.97967 -11.16642,-10.44118 -16.66667,-14.06252 -8.18213,-5.38702 -33.61622,-11.7432 -47.78644,-25.1302 C 365.69523,473.52271 378.00001,453.77 378.00001,453.77 z"
       style="fill:url(#linearGradient3305-614);fill-opacity:1;fill-rule:evenodd;stroke:none" />
    <path
       transform="matrix(1.38889,0,0,1.38889,-108.111,-215.585)"
       d="m 420,482.36218 c 0,38.65994 -31.34007,70 -70,70 -38.65993,0 -70,-31.34006 -70,-70 0,-38.65993 31.34007,-70 70,-70 38.65993,0 70,31.34007 70,70 z"
       sodipodi:ry="70"
       sodipodi:rx="70"
       sodipodi:cy="482.36218"
       sodipodi:cx="350"
       id="path3223"
       style="fill:#ffffff;fill-opacity:1;stroke:#000000;stroke-width:4;stroke-linejoin:round;stroke-miterlimit:4;stroke-opacity:1;stroke-dasharray:none"
       sodipodi:type="arc" />
    <path
       inkscape:connector-curvature="0"
       style="fill:#000000;fill-opacity:1;fill-rule:evenodd;stroke:none"
       d="m 378.00001,453.46141 c 0,0 -13.747,8.82578 -12.32644,24.09563 1.41873,15.24987 26.71708,39.5148 35.32986,50.73782 5.07589,6.61427 7.40527,13.48249 8.50694,18.05556 12.91826,-4.42883 24.59846,-11.54325 34.41842,-20.61631 -4.16289,-3.97967 -11.16642,-10.44118 -16.66667,-14.06252 -8.18213,-5.38702 -33.61622,-11.7432 -47.78644,-25.1302 -13.78045,-13.01868 -1.47567,-33.07998 -1.47567,-33.07998 z"
       id="use3230"
       inkscape:transform-center-x="-26.749727"
       inkscape:transform-center-y="46.600787"
       sodipodi:nodetypes="cssccssc" />
    <path
       inkscape:connector-curvature="0"
       transform="translate(278,354.362)"
       id="path3291"
       d="M 93.177978,199.59119 C 92.06681,199.47937 88.657545,199.03207 85.601834,198.59721 46.005859,192.96214 13.030945,163.16633 3.325884,124.25341 -0.6964172,108.12578 -0.54114665,89.400365 3.7425113,74.008701 8.5260735,56.820824 17.310714,41.745889 29.63059,29.583309 c 6.007352,-5.930662 9.007606,-8.397378 15.41964,-12.677597 26.250728,-17.52311085 59.77844,-21.4046523 89.544,-10.3666144 23.86677,8.8505774 43.43721,26.5434044 54.92755,49.6577204 11.77653,23.690042 13.34701,52.676002 4.20729,77.653042 -5.14541,14.0614 -12.74091,25.97243 -23.28796,36.51948 -15.07961,15.07961 -33.6713,24.60041 -54.78724,28.05656 -5.62333,0.92039 -18.351757,1.58032 -22.475892,1.16529 z m 20.688892,-6.06847 c 4.73055,-0.6919 11.02672,-2.09431 14.8342,-3.30417 2.06368,-0.65575 1.98839,-1.17314 -1.12827,-7.75266 -2.57035,-5.42625 -4.84637,-8.4911 -15.09135,-20.32186 -9.64718,-11.14042 -13.82297,-16.3456 -17.534695,-21.85717 -6.002473,-8.91313 -7.808439,-13.90416 -7.484301,-20.68381 0.274848,-5.74864 2.421629,-10.47259 6.967734,-15.3324 1.736215,-1.85602 3.012068,-3.37458 2.835221,-3.37458 -1.034098,0 -7.473937,3.36858 -9.806258,5.1295 -3.840736,2.89978 -5.401634,4.72124 -7.290554,8.50756 -1.564635,3.1363 -1.637351,3.54253 -1.627295,9.09137 0.01659,9.15843 2.405072,17.80553 9.990328,36.16836 5.884866,14.24642 6.50865,16.70729 7.219565,28.4814 0.196606,3.2564 0.596021,5.98481 0.909052,6.20994 0.738007,0.53078 10.877843,-0.0358 17.206633,-0.96148 l -10e-6,0 z M 59.709276,180.50536 c 2.969121,-7.01229 3.306476,-9.19555 5.199164,-33.64735 1.221259,-15.77754 2.312921,-22.88528 4.615619,-30.05204 1.861232,-5.79277 2.945499,-7.67148 6.424722,-11.13211 4.668511,-4.64357 10.067387,-6.758459 17.461583,-6.840195 l 3.808224,-0.04209 -2.62625,-1.242468 C 88.180213,94.51553 79.354187,94.079892 73.996888,96.532547 68.294335,99.143266 61.815424,107.06605 56.17907,118.3212 c -1.391126,2.77792 -4.57838,9.94128 -7.082795,15.91859 -2.504416,5.9773 -5.073689,11.77306 -5.709499,12.87944 -1.559498,2.71371 -6.966699,9.67402 -10.376953,13.3575 l -2.778965,3.0016 1.071948,1.4499 c 1.339053,1.81117 7.283145,7.17719 11.61681,10.48706 4.387052,3.35064 13.658924,8.88929 14.580244,8.70966 0.405748,-0.0791 1.399985,-1.70794 2.209421,-3.61961 l -5e-6,2e-5 z M 168.79351,164.91449 c 2.15577,-2.29179 5.4355,-6.24114 7.28832,-8.77634 3.77118,-5.16009 8.866,-13.78286 8.60547,-14.56442 -0.25673,-0.77023 -7.80051,-3.68835 -11.7551,-4.54718 -1.91823,-0.41658 -10.7608,-1.32865 -19.65015,-2.02681 -19.82307,-1.5569 -26.79121,-2.4931 -34.59772,-4.64839 -12.36713,-3.41443 -19.097505,-11.94659 -19.234997,-24.38437 l -0.04209,-3.80822 -1.242467,2.62623 c -3.03711,6.41961 -3.489446,15.19398 -1.057165,20.50678 3.714259,8.113 15.984609,16.19922 38.473449,25.35416 12.41853,5.05544 16.9398,7.84184 25.27714,15.57797 1.66675,1.54654 3.25215,2.82217 3.52312,2.8347 0.27098,0.0125 2.25646,-1.85233 4.41221,-4.14411 l -2e-5,0 z M 16.438215,127.18155 c 5.872865,-2.72237 8.004196,-4.29092 21.029108,-15.47626 17.166997,-14.742433 24.566718,-20.091468 32.297991,-23.34721 2.823452,-1.188995 3.878061,-1.351609 8.765452,-1.351609 5.341303,0 5.703453,0.0705 9.37859,1.825643 2.442801,1.16662 5.040924,2.965187 7.197337,4.982406 1.856024,1.736215 3.374586,3.002158 3.374586,2.813209 0,-0.188959 -0.763367,-1.976469 -1.696369,-3.972253 -3.169738,-6.780366 -7.613924,-11.448589 -12.950843,-13.603679 -2.31681,-0.935548 -3.700143,-1.114819 -8.333758,-1.080025 -9.035315,0.06785 -16.362825,2.083692 -35.102801,9.656998 -6.528111,2.63818 -12.892072,5.094113 -14.142136,5.457632 -3.25857,0.947589 -8.490802,1.665393 -15.026019,2.061393 l -5.6821082,0.344305 0,6.30351 c 0,8.10925 1.6092437,18.39579 4.1093864,26.26786 0.6204208,1.95348 0.6822418,1.94544 6.7815778,-0.88191 l 6e-6,-1e-5 z m 119.418705,-7.77009 c 6.68645,-1.60758 13.27293,-3.90689 24.63095,-8.59857 13.92216,-5.75084 16.43283,-6.37749 28.78087,-7.1836 l 5.17703,-0.33796 -0.009,-5.869586 C 194.42467,89.695012 192.1952,76.37508 189.9064,70.355076 l -0.4846,-1.27456 -2.53777,1.000303 c -7.50827,2.959479 -10.66389,5.159016 -24.12415,16.81508 -11.14041,9.647179 -16.34559,13.822971 -21.85716,17.534691 -8.91315,6.00247 -13.90416,7.80844 -20.68381,7.4843 -5.77995,-0.27634 -10.46758,-2.41721 -15.40616,-7.03609 -3.7991,-3.55318 -3.94363,-3.26015 -1.14948,2.33072 3.46395,6.93108 8.96629,11.87404 14.88714,13.37368 3.12255,0.79089 11.50358,0.22346 17.3067,-1.17175 l 0,1e-5 z m -9.95947,-17.1297 c 8.05632,-3.708851 15.33642,-14.552899 24.43268,-36.393574 6.26054,-15.031949 7.56314,-17.237026 15.54055,-26.307175 l 3.50834,-3.988896 -4.01527,-3.867202 c -6.87888,-6.625232 -21.24479,-16.497362 -23.38931,-16.072936 -0.92236,0.182544 -3.38703,6.421287 -4.35538,11.024623 -0.42247,2.008441 -0.99885,6.403786 -1.28079,9.767437 -0.28195,3.363652 -0.95113,11.456903 -1.48707,17.985014 -1.84413,22.462792 -4.39649,32.049115 -10.15401,38.136834 -4.6052,4.869325 -8.86057,6.69965 -16.872,7.257022 l -5.05076,0.351393 2.0203,0.90758 c 7.0436,3.16418 15.7594,3.65976 21.10271,1.19988 l 1e-5,0 z m -18.07226,-6.567502 c 5.8273,-2.91231 9.87366,-6.851637 12.31657,-11.990783 1.18914,-2.501593 1.31944,-3.355692 1.30996,-8.586297 -0.0166,-9.158437 -2.40509,-17.80555 -9.99033,-36.16836 -5.82699,-14.106341 -6.45813,-16.585134 -7.21951,-28.355134 l -0.33488,-5.1770316 -5.220872,0 c -6.618414,0 -15.005043,1.1448009 -22.376137,3.0544134 -3.165969,0.8202035 -5.83656,1.4912731 -5.934646,1.4912731 -1.029886,0 2.545958,8.1867611 5.476673,12.5386191 0.972646,1.444296 6.291665,7.89311 11.820043,14.330696 14.742429,17.166997 20.091469,24.566718 23.347209,32.297991 1.18898,2.823452 1.35161,3.878062 1.35161,8.765453 0,5.341302 -0.0705,5.703452 -1.82565,9.378589 -1.17876,2.468202 -2.96843,5.044641 -5.05076,7.271098 -3.5532,3.799118 -3.26015,3.943631 2.33072,1.149478 l 0,-5e-6 z m -4.99022,-4.162101 c 1.17582,-3.415048 1.39611,-4.90076 1.42294,-9.596449 0.0287,-5.02211 -0.0997,-5.836348 -1.33649,-8.475796 C 99.107867,65.34138 87.378809,57.564787 65.398783,48.601668 51.986998,43.13254 49.954419,41.941651 41.453329,34.571962 l -5.257627,-4.557894 -4.101729,4.25253 c -2.255959,2.338907 -5.564143,6.178376 -7.351527,8.532163 -3.55211,4.677738 -9.093676,13.500688 -9.093676,14.478415 0,0.723633 6.725141,3.40627 11.235185,4.481673 1.737714,0.414344 10.432587,1.321219 19.32193,2.015259 17.822182,1.391481 25.11067,2.269818 31.567267,3.80419 9.350613,2.222123 14.232327,4.98682 18.304121,10.366321 2.671166,3.529044 3.962677,7.598186 4.289007,13.51322 0.15039,2.726043 0.45436,4.771602 0.67548,4.545686 0.22111,-0.225915 1.02807,-2.229032 1.79323,-4.451368 l -2e-5,0 z"
       style="opacity:0;fill:#000000;fill-opacity:1;stroke:none" />
    <path
       inkscape:connector-curvature="0"
       transform="translate(278,354.362)"
       id="path3293"
       d="M 93.177978,199.59119 C 92.06681,199.47937 88.657545,199.03207 85.601834,198.59721 46.005859,192.96214 13.030945,163.16633 3.325884,124.25341 -0.6964172,108.12578 -0.54114665,89.400365 3.7425113,74.008701 8.5260735,56.820824 17.310714,41.745889 29.63059,29.583309 c 6.007352,-5.930662 9.007606,-8.397378 15.41964,-12.677597 26.250728,-17.52311085 59.77844,-21.4046523 89.544,-10.3666144 23.86677,8.8505774 43.43721,26.5434044 54.92755,49.6577204 11.77653,23.690042 13.34701,52.676002 4.20729,77.653042 -5.14541,14.0614 -12.74091,25.97243 -23.28796,36.51948 -15.07961,15.07961 -33.6713,24.60041 -54.78724,28.05656 -5.62333,0.92039 -18.351757,1.58032 -22.475892,1.16529 z m 20.688892,-6.06847 c 4.73055,-0.6919 11.02672,-2.09431 14.8342,-3.30417 2.06368,-0.65575 1.98839,-1.17314 -1.12827,-7.75266 -2.57035,-5.42625 -4.84637,-8.4911 -15.09135,-20.32186 -9.64718,-11.14042 -13.82297,-16.3456 -17.534695,-21.85717 -6.002473,-8.91313 -7.808439,-13.90416 -7.484301,-20.68381 0.274848,-5.74864 2.421629,-10.47259 6.967734,-15.3324 1.736215,-1.85602 3.012068,-3.37458 2.835221,-3.37458 -1.034098,0 -7.473937,3.36858 -9.806258,5.1295 -3.840736,2.89978 -5.401634,4.72124 -7.290554,8.50756 -1.564635,3.1363 -1.637351,3.54253 -1.627295,9.09137 0.01659,9.15843 2.405072,17.80553 9.990328,36.16836 5.884866,14.24642 6.50865,16.70729 7.219565,28.4814 0.196606,3.2564 0.596021,5.98481 0.909052,6.20994 0.738007,0.53078 10.877843,-0.0358 17.206633,-0.96148 l -10e-6,0 z M 59.709276,180.50536 c 2.969121,-7.01229 3.306476,-9.19555 5.199164,-33.64735 1.221259,-15.77754 2.312921,-22.88528 4.615619,-30.05204 1.861232,-5.79277 2.945499,-7.67148 6.424722,-11.13211 4.668511,-4.64357 10.067387,-6.758459 17.461583,-6.840195 l 3.808224,-0.04209 -2.62625,-1.242468 C 88.180213,94.51553 79.354187,94.079892 73.996888,96.532547 68.294335,99.143266 61.815424,107.06605 56.17907,118.3212 c -1.391126,2.77792 -4.57838,9.94128 -7.082795,15.91859 -2.504416,5.9773 -5.073689,11.77306 -5.709499,12.87944 -1.559498,2.71371 -6.966699,9.67402 -10.376953,13.3575 l -2.778965,3.0016 1.071948,1.4499 c 1.339053,1.81117 7.283145,7.17719 11.61681,10.48706 4.387052,3.35064 13.658924,8.88929 14.580244,8.70966 0.405748,-0.0791 1.399985,-1.70794 2.209421,-3.61961 l -5e-6,2e-5 z M 168.79351,164.91449 c 2.15577,-2.29179 5.4355,-6.24114 7.28832,-8.77634 3.77118,-5.16009 8.866,-13.78286 8.60547,-14.56442 -0.25673,-0.77023 -7.80051,-3.68835 -11.7551,-4.54718 -1.91823,-0.41658 -10.7608,-1.32865 -19.65015,-2.02681 -19.82307,-1.5569 -26.79121,-2.4931 -34.59772,-4.64839 -12.36713,-3.41443 -19.097505,-11.94659 -19.234997,-24.38437 l -0.04209,-3.80822 -1.242467,2.62623 c -3.03711,6.41961 -3.489446,15.19398 -1.057165,20.50678 3.714259,8.113 15.984609,16.19922 38.473449,25.35416 12.41853,5.05544 16.9398,7.84184 25.27714,15.57797 1.66675,1.54654 3.25215,2.82217 3.52312,2.8347 0.27098,0.0125 2.25646,-1.85233 4.41221,-4.14411 l -2e-5,0 z M 16.438215,127.18155 c 5.872865,-2.72237 8.004196,-4.29092 21.029108,-15.47626 17.166997,-14.742433 24.566718,-20.091468 32.297991,-23.34721 2.823452,-1.188995 3.878061,-1.351609 8.765452,-1.351609 5.341303,0 5.703453,0.0705 9.37859,1.825643 2.442801,1.16662 5.040924,2.965187 7.197337,4.982406 1.856024,1.736215 3.374586,3.002158 3.374586,2.813209 0,-0.188959 -0.763367,-1.976469 -1.696369,-3.972253 -3.169738,-6.780366 -7.613924,-11.448589 -12.950843,-13.603679 -2.31681,-0.935548 -3.700143,-1.114819 -8.333758,-1.080025 -9.035315,0.06785 -16.362825,2.083692 -35.102801,9.656998 -6.528111,2.63818 -12.892072,5.094113 -14.142136,5.457632 -3.25857,0.947589 -8.490802,1.665393 -15.026019,2.061393 l -5.6821082,0.344305 0,6.30351 c 0,8.10925 1.6092437,18.39579 4.1093864,26.26786 0.6204208,1.95348 0.6822418,1.94544 6.7815778,-0.88191 l 6e-6,-1e-5 z m 119.418705,-7.77009 c 6.68645,-1.60758 13.27293,-3.90689 24.63095,-8.59857 13.92216,-5.75084 16.43283,-6.37749 28.78087,-7.1836 l 5.17703,-0.33796 -0.009,-5.869586 C 194.42467,89.695012 192.1952,76.37508 189.9064,70.355076 l -0.4846,-1.27456 -2.53777,1.000303 c -7.50827,2.959479 -10.66389,5.159016 -24.12415,16.81508 -11.14041,9.647179 -16.34559,13.822971 -21.85716,17.534691 -8.91315,6.00247 -13.90416,7.80844 -20.68381,7.4843 -5.77995,-0.27634 -10.46758,-2.41721 -15.40616,-7.03609 -3.7991,-3.55318 -3.94363,-3.26015 -1.14948,2.33072 3.46395,6.93108 8.96629,11.87404 14.88714,13.37368 3.12255,0.79089 11.50358,0.22346 17.3067,-1.17175 l 0,1e-5 z m -9.95947,-17.1297 c 8.05632,-3.708851 15.33642,-14.552899 24.43268,-36.393574 6.26054,-15.031949 7.56314,-17.237026 15.54055,-26.307175 l 3.50834,-3.988896 -4.01527,-3.867202 c -6.87888,-6.625232 -21.24479,-16.497362 -23.38931,-16.072936 -0.92236,0.182544 -3.38703,6.421287 -4.35538,11.024623 -0.42247,2.008441 -0.99885,6.403786 -1.28079,9.767437 -0.28195,3.363652 -0.95113,11.456903 -1.48707,17.985014 -1.84413,22.462792 -4.39649,32.049115 -10.15401,38.136834 -4.6052,4.869325 -8.86057,6.69965 -16.872,7.257022 l -5.05076,0.351393 2.0203,0.90758 c 7.0436,3.16418 15.7594,3.65976 21.10271,1.19988 l 1e-5,0 z m -18.07226,-6.567502 c 5.8273,-2.91231 9.87366,-6.851637 12.31657,-11.990783 1.18914,-2.501593 1.31944,-3.355692 1.30996,-8.586297 -0.0166,-9.158437 -2.40509,-17.80555 -9.99033,-36.16836 -5.82699,-14.106341 -6.45813,-16.585134 -7.21951,-28.355134 l -0.33488,-5.1770316 -5.220872,0 c -6.618414,0 -15.005043,1.1448009 -22.376137,3.0544134 -3.165969,0.8202035 -5.83656,1.4912731 -5.934646,1.4912731 -1.029886,0 2.545958,8.1867611 5.476673,12.5386191 0.972646,1.444296 6.291665,7.89311 11.820043,14.330696 14.742429,17.166997 20.091469,24.566718 23.347209,32.297991 1.18898,2.823452 1.35161,3.878062 1.35161,8.765453 0,5.341302 -0.0705,5.703452 -1.82565,9.378589 -1.17876,2.468202 -2.96843,5.044641 -5.05076,7.271098 -3.5532,3.799118 -3.26015,3.943631 2.33072,1.149478 l 0,-5e-6 z m -4.99022,-4.162101 c 1.17582,-3.415048 1.39611,-4.90076 1.42294,-9.596449 0.0287,-5.02211 -0.0997,-5.836348 -1.33649,-8.475796 C 99.107867,65.34138 87.378809,57.564787 65.398783,48.601668 51.986998,43.13254 49.954419,41.941651 41.453329,34.571962 l -5.257627,-4.557894 -4.101729,4.25253 c -2.255959,2.338907 -5.564143,6.178376 -7.351527,8.532163 -3.55211,4.677738 -9.093676,13.500688 -9.093676,14.478415 0,0.723633 6.725141,3.40627 11.235185,4.481673 1.737714,0.414344 10.432587,1.321219 19.32193,2.015259 17.822182,1.391481 25.11067,2.269818 31.567267,3.80419 9.350613,2.222123 14.232327,4.98682 18.304121,10.366321 2.671166,3.529044 3.962677,7.598186 4.289007,13.51322 0.15039,2.726043 0.45436,4.771602 0.67548,4.545686 0.22111,-0.225915 1.02807,-2.229032 1.79323,-4.451368 l -2e-5,0 z"
       style="opacity:0;fill:#000000;fill-opacity:1;stroke:none" />
    <path
       inkscape:connector-curvature="0"
       transform="translate(278,354.362)"
       id="path3295"
       d="M 93.177978,199.59119 C 92.06681,199.47937 88.657545,199.03207 85.601834,198.59721 46.005859,192.96214 13.030945,163.16633 3.325884,124.25341 -0.6964172,108.12578 -0.54114665,89.400365 3.7425113,74.008701 8.5260735,56.820824 17.310714,41.745889 29.63059,29.583309 c 6.007352,-5.930662 9.007606,-8.397378 15.41964,-12.677597 26.250728,-17.52311085 59.77844,-21.4046523 89.544,-10.3666144 23.86677,8.8505774 43.43721,26.5434044 54.92755,49.6577204 11.77653,23.690042 13.34701,52.676002 4.20729,77.653042 -5.14541,14.0614 -12.74091,25.97243 -23.28796,36.51948 -15.07961,15.07961 -33.6713,24.60041 -54.78724,28.05656 -5.62333,0.92039 -18.351757,1.58032 -22.475892,1.16529 z m 20.688892,-6.06847 c 4.73055,-0.6919 11.02672,-2.09431 14.8342,-3.30417 2.06368,-0.65575 1.98839,-1.17314 -1.12827,-7.75266 -2.57035,-5.42625 -4.84637,-8.4911 -15.09135,-20.32186 -9.64718,-11.14042 -13.82297,-16.3456 -17.534695,-21.85717 -6.002473,-8.91313 -7.808439,-13.90416 -7.484301,-20.68381 0.274848,-5.74864 2.421629,-10.47259 6.967734,-15.3324 1.736215,-1.85602 3.012068,-3.37458 2.835221,-3.37458 -1.034098,0 -7.473937,3.36858 -9.806258,5.1295 -3.840736,2.89978 -5.401634,4.72124 -7.290554,8.50756 -1.564635,3.1363 -1.637351,3.54253 -1.627295,9.09137 0.01659,9.15843 2.405072,17.80553 9.990328,36.16836 5.884866,14.24642 6.50865,16.70729 7.219565,28.4814 0.196606,3.2564 0.596021,5.98481 0.909052,6.20994 0.738007,0.53078 10.877843,-0.0358 17.206633,-0.96148 l -10e-6,0 z M 59.709276,180.50536 c 2.969121,-7.01229 3.306476,-9.19555 5.199164,-33.64735 1.221259,-15.77754 2.312921,-22.88528 4.615619,-30.05204 1.861232,-5.79277 2.945499,-7.67148 6.424722,-11.13211 4.668511,-4.64357 10.067387,-6.758459 17.461583,-6.840195 l 3.808224,-0.04209 -2.62625,-1.242468 C 88.180213,94.51553 79.354187,94.079892 73.996888,96.532547 68.294335,99.143266 61.815424,107.06605 56.17907,118.3212 c -1.391126,2.77792 -4.57838,9.94128 -7.082795,15.91859 -2.504416,5.9773 -5.073689,11.77306 -5.709499,12.87944 -1.559498,2.71371 -6.966699,9.67402 -10.376953,13.3575 l -2.778965,3.0016 1.071948,1.4499 c 1.339053,1.81117 7.283145,7.17719 11.61681,10.48706 4.387052,3.35064 13.658924,8.88929 14.580244,8.70966 0.405748,-0.0791 1.399985,-1.70794 2.209421,-3.61961 l -5e-6,2e-5 z M 168.79351,164.91449 c 2.15577,-2.29179 5.4355,-6.24114 7.28832,-8.77634 3.77118,-5.16009 8.866,-13.78286 8.60547,-14.56442 -0.25673,-0.77023 -7.80051,-3.68835 -11.7551,-4.54718 -1.91823,-0.41658 -10.7608,-1.32865 -19.65015,-2.02681 -19.82307,-1.5569 -26.79121,-2.4931 -34.59772,-4.64839 -12.36713,-3.41443 -19.097505,-11.94659 -19.234997,-24.38437 l -0.04209,-3.80822 -1.242467,2.62623 c -3.03711,6.41961 -3.489446,15.19398 -1.057165,20.50678 3.714259,8.113 15.984609,16.19922 38.473449,25.35416 12.41853,5.05544 16.9398,7.84184 25.27714,15.57797 1.66675,1.54654 3.25215,2.82217 3.52312,2.8347 0.27098,0.0125 2.25646,-1.85233 4.41221,-4.14411 l -2e-5,0 z M 16.438215,127.18155 c 5.872865,-2.72237 8.004196,-4.29092 21.029108,-15.47626 17.166997,-14.742433 24.566718,-20.091468 32.297991,-23.34721 2.823452,-1.188995 3.878061,-1.351609 8.765452,-1.351609 5.341303,0 5.703453,0.0705 9.37859,1.825643 2.442801,1.16662 5.040924,2.965187 7.197337,4.982406 1.856024,1.736215 3.374586,3.002158 3.374586,2.813209 0,-0.188959 -0.763367,-1.976469 -1.696369,-3.972253 -3.169738,-6.780366 -7.613924,-11.448589 -12.950843,-13.603679 -2.31681,-0.935548 -3.700143,-1.114819 -8.333758,-1.080025 -9.035315,0.06785 -16.362825,2.083692 -35.102801,9.656998 -6.528111,2.63818 -12.892072,5.094113 -14.142136,5.457632 -3.25857,0.947589 -8.490802,1.665393 -15.026019,2.061393 l -5.6821082,0.344305 0,6.30351 c 0,8.10925 1.6092437,18.39579 4.1093864,26.26786 0.6204208,1.95348 0.6822418,1.94544 6.7815778,-0.88191 l 6e-6,-1e-5 z m 119.418705,-7.77009 c 6.68645,-1.60758 13.27293,-3.90689 24.63095,-8.59857 13.92216,-5.75084 16.43283,-6.37749 28.78087,-7.1836 l 5.17703,-0.33796 -0.009,-5.869586 C 194.42467,89.695012 192.1952,76.37508 189.9064,70.355076 l -0.4846,-1.27456 -2.53777,1.000303 c -7.50827,2.959479 -10.66389,5.159016 -24.12415,16.81508 -11.14041,9.647179 -16.34559,13.822971 -21.85716,17.534691 -8.91315,6.00247 -13.90416,7.80844 -20.68381,7.4843 -5.77995,-0.27634 -10.46758,-2.41721 -15.40616,-7.03609 -3.7991,-3.55318 -3.94363,-3.26015 -1.14948,2.33072 3.46395,6.93108 8.96629,11.87404 14.88714,13.37368 3.12255,0.79089 11.50358,0.22346 17.3067,-1.17175 l 0,1e-5 z m -9.95947,-17.1297 c 8.05632,-3.708851 15.33642,-14.552899 24.43268,-36.393574 6.26054,-15.031949 7.56314,-17.237026 15.54055,-26.307175 l 3.50834,-3.988896 -4.01527,-3.867202 c -6.87888,-6.625232 -21.24479,-16.497362 -23.38931,-16.072936 -0.92236,0.182544 -3.38703,6.421287 -4.35538,11.024623 -0.42247,2.008441 -0.99885,6.403786 -1.28079,9.767437 -0.28195,3.363652 -0.95113,11.456903 -1.48707,17.985014 -1.84413,22.462792 -4.39649,32.049115 -10.15401,38.136834 -4.6052,4.869325 -8.86057,6.69965 -16.872,7.257022 l -5.05076,0.351393 2.0203,0.90758 c 7.0436,3.16418 15.7594,3.65976 21.10271,1.19988 l 1e-5,0 z m -18.07226,-6.567502 c 5.8273,-2.91231 9.87366,-6.851637 12.31657,-11.990783 1.18914,-2.501593 1.31944,-3.355692 1.30996,-8.586297 -0.0166,-9.158437 -2.40509,-17.80555 -9.99033,-36.16836 -5.82699,-14.106341 -6.45813,-16.585134 -7.21951,-28.355134 l -0.33488,-5.1770316 -5.220872,0 c -6.618414,0 -15.005043,1.1448009 -22.376137,3.0544134 -3.165969,0.8202035 -5.83656,1.4912731 -5.934646,1.4912731 -1.029886,0 2.545958,8.1867611 5.476673,12.5386191 0.972646,1.444296 6.291665,7.89311 11.820043,14.330696 14.742429,17.166997 20.091469,24.566718 23.347209,32.297991 1.18898,2.823452 1.35161,3.878062 1.35161,8.765453 0,5.341302 -0.0705,5.703452 -1.82565,9.378589 -1.17876,2.468202 -2.96843,5.044641 -5.05076,7.271098 -3.5532,3.799118 -3.26015,3.943631 2.33072,1.149478 l 0,-5e-6 z m -4.99022,-4.162101 c 1.17582,-3.415048 1.39611,-4.90076 1.42294,-9.596449 0.0287,-5.02211 -0.0997,-5.836348 -1.33649,-8.475796 C 99.107867,65.34138 87.378809,57.564787 65.398783,48.601668 51.986998,43.13254 49.954419,41.941651 41.453329,34.571962 l -5.257627,-4.557894 -4.101729,4.25253 c -2.255959,2.338907 -5.564143,6.178376 -7.351527,8.532163 -3.55211,4.677738 -9.093676,13.500688 -9.093676,14.478415 0,0.723633 6.725141,3.40627 11.235185,4.481673 1.737714,0.414344 10.432587,1.321219 19.32193,2.015259 17.822182,1.391481 25.11067,2.269818 31.567267,3.80419 9.350613,2.222123 14.232327,4.98682 18.304121,10.366321 2.671166,3.529044 3.962677,7.598186 4.289007,13.51322 0.15039,2.726043 0.45436,4.771602 0.67548,4.545686 0.22111,-0.225915 1.02807,-2.229032 1.79323,-4.451368 l -2e-5,0 z"
       style="opacity:0;fill:#000000;fill-opacity:1;stroke:none" />
    <path
       inkscape:connector-curvature="0"
       transform="translate(278,354.362)"
       id="path3297"
       d="M 93.177978,199.59119 C 92.06681,199.47937 88.657545,199.03207 85.601834,198.59721 46.005859,192.96214 13.030945,163.16633 3.325884,124.25341 -0.6964172,108.12578 -0.54114665,89.400365 3.7425113,74.008701 8.5260735,56.820824 17.310714,41.745889 29.63059,29.583309 c 6.007352,-5.930662 9.007606,-8.397378 15.41964,-12.677597 26.250728,-17.52311085 59.77844,-21.4046523 89.544,-10.3666144 23.86677,8.8505774 43.43721,26.5434044 54.92755,49.6577204 11.77653,23.690042 13.34701,52.676002 4.20729,77.653042 -5.14541,14.0614 -12.74091,25.97243 -23.28796,36.51948 -15.07961,15.07961 -33.6713,24.60041 -54.78724,28.05656 -5.62333,0.92039 -18.351757,1.58032 -22.475892,1.16529 z m 20.688892,-6.06847 c 4.73055,-0.6919 11.02672,-2.09431 14.8342,-3.30417 2.06368,-0.65575 1.98839,-1.17314 -1.12827,-7.75266 -2.57035,-5.42625 -4.84637,-8.4911 -15.09135,-20.32186 -9.64718,-11.14042 -13.82297,-16.3456 -17.534695,-21.85717 -6.002473,-8.91313 -7.808439,-13.90416 -7.484301,-20.68381 0.274848,-5.74864 2.421629,-10.47259 6.967734,-15.3324 1.736215,-1.85602 3.012068,-3.37458 2.835221,-3.37458 -1.034098,0 -7.473937,3.36858 -9.806258,5.1295 -3.840736,2.89978 -5.401634,4.72124 -7.290554,8.50756 -1.564635,3.1363 -1.637351,3.54253 -1.627295,9.09137 0.01659,9.15843 2.405072,17.80553 9.990328,36.16836 5.884866,14.24642 6.50865,16.70729 7.219565,28.4814 0.196606,3.2564 0.596021,5.98481 0.909052,6.20994 0.738007,0.53078 10.877843,-0.0358 17.206633,-0.96148 l -10e-6,0 z M 59.709276,180.50536 c 2.969121,-7.01229 3.306476,-9.19555 5.199164,-33.64735 1.221259,-15.77754 2.312921,-22.88528 4.615619,-30.05204 1.861232,-5.79277 2.945499,-7.67148 6.424722,-11.13211 4.668511,-4.64357 10.067387,-6.758459 17.461583,-6.840195 l 3.808224,-0.04209 -2.62625,-1.242468 C 88.180213,94.51553 79.354187,94.079892 73.996888,96.532547 68.294335,99.143266 61.815424,107.06605 56.17907,118.3212 c -1.391126,2.77792 -4.57838,9.94128 -7.082795,15.91859 -2.504416,5.9773 -5.073689,11.77306 -5.709499,12.87944 -1.559498,2.71371 -6.966699,9.67402 -10.376953,13.3575 l -2.778965,3.0016 1.071948,1.4499 c 1.339053,1.81117 7.283145,7.17719 11.61681,10.48706 4.387052,3.35064 13.658924,8.88929 14.580244,8.70966 0.405748,-0.0791 1.399985,-1.70794 2.209421,-3.61961 l -5e-6,2e-5 z M 168.79351,164.91449 c 2.15577,-2.29179 5.4355,-6.24114 7.28832,-8.77634 3.77118,-5.16009 8.866,-13.78286 8.60547,-14.56442 -0.25673,-0.77023 -7.80051,-3.68835 -11.7551,-4.54718 -1.91823,-0.41658 -10.7608,-1.32865 -19.65015,-2.02681 -19.82307,-1.5569 -26.79121,-2.4931 -34.59772,-4.64839 -12.36713,-3.41443 -19.097505,-11.94659 -19.234997,-24.38437 l -0.04209,-3.80822 -1.242467,2.62623 c -3.03711,6.41961 -3.489446,15.19398 -1.057165,20.50678 3.714259,8.113 15.984609,16.19922 38.473449,25.35416 12.41853,5.05544 16.9398,7.84184 25.27714,15.57797 1.66675,1.54654 3.25215,2.82217 3.52312,2.8347 0.27098,0.0125 2.25646,-1.85233 4.41221,-4.14411 l -2e-5,0 z M 16.438215,127.18155 c 5.872865,-2.72237 8.004196,-4.29092 21.029108,-15.47626 17.166997,-14.742433 24.566718,-20.091468 32.297991,-23.34721 2.823452,-1.188995 3.878061,-1.351609 8.765452,-1.351609 5.341303,0 5.703453,0.0705 9.37859,1.825643 2.442801,1.16662 5.040924,2.965187 7.197337,4.982406 1.856024,1.736215 3.374586,3.002158 3.374586,2.813209 0,-0.188959 -0.763367,-1.976469 -1.696369,-3.972253 -3.169738,-6.780366 -7.613924,-11.448589 -12.950843,-13.603679 -2.31681,-0.935548 -3.700143,-1.114819 -8.333758,-1.080025 -9.035315,0.06785 -16.362825,2.083692 -35.102801,9.656998 -6.528111,2.63818 -12.892072,5.094113 -14.142136,5.457632 -3.25857,0.947589 -8.490802,1.665393 -15.026019,2.061393 l -5.6821082,0.344305 0,6.30351 c 0,8.10925 1.6092437,18.39579 4.1093864,26.26786 0.6204208,1.95348 0.6822418,1.94544 6.7815778,-0.88191 l 6e-6,-1e-5 z m 119.418705,-7.77009 c 6.68645,-1.60758 13.27293,-3.90689 24.63095,-8.59857 13.92216,-5.75084 16.43283,-6.37749 28.78087,-7.1836 l 5.17703,-0.33796 -0.009,-5.869586 C 194.42467,89.695012 192.1952,76.37508 189.9064,70.355076 l -0.4846,-1.27456 -2.53777,1.000303 c -7.50827,2.959479 -10.66389,5.159016 -24.12415,16.81508 -11.14041,9.647179 -16.34559,13.822971 -21.85716,17.534691 -8.91315,6.00247 -13.90416,7.80844 -20.68381,7.4843 -5.77995,-0.27634 -10.46758,-2.41721 -15.40616,-7.03609 -3.7991,-3.55318 -3.94363,-3.26015 -1.14948,2.33072 3.46395,6.93108 8.96629,11.87404 14.88714,13.37368 3.12255,0.79089 11.50358,0.22346 17.3067,-1.17175 l 0,1e-5 z m -9.95947,-17.1297 c 8.05632,-3.708851 15.33642,-14.552899 24.43268,-36.393574 6.26054,-15.031949 7.56314,-17.237026 15.54055,-26.307175 l 3.50834,-3.988896 -4.01527,-3.867202 c -6.87888,-6.625232 -21.24479,-16.497362 -23.38931,-16.072936 -0.92236,0.182544 -3.38703,6.421287 -4.35538,11.024623 -0.42247,2.008441 -0.99885,6.403786 -1.28079,9.767437 -0.28195,3.363652 -0.95113,11.456903 -1.48707,17.985014 -1.84413,22.462792 -4.39649,32.049115 -10.15401,38.136834 -4.6052,4.869325 -8.86057,6.69965 -16.872,7.257022 l -5.05076,0.351393 2.0203,0.90758 c 7.0436,3.16418 15.7594,3.65976 21.10271,1.19988 l 1e-5,0 z m -18.07226,-6.567502 c 5.8273,-2.91231 9.87366,-6.851637 12.31657,-11.990783 1.18914,-2.501593 1.31944,-3.355692 1.30996,-8.586297 -0.0166,-9.158437 -2.40509,-17.80555 -9.99033,-36.16836 -5.82699,-14.106341 -6.45813,-16.585134 -7.21951,-28.355134 l -0.33488,-5.1770316 -5.220872,0 c -6.618414,0 -15.005043,1.1448009 -22.376137,3.0544134 -3.165969,0.8202035 -5.83656,1.4912731 -5.934646,1.4912731 -1.029886,0 2.545958,8.1867611 5.476673,12.5386191 0.972646,1.444296 6.291665,7.89311 11.820043,14.330696 14.742429,17.166997 20.091469,24.566718 23.347209,32.297991 1.18898,2.823452 1.35161,3.878062 1.35161,8.765453 0,5.341302 -0.0705,5.703452 -1.82565,9.378589 -1.17876,2.468202 -2.96843,5.044641 -5.05076,7.271098 -3.5532,3.799118 -3.26015,3.943631 2.33072,1.149478 l 0,-5e-6 z m -4.99022,-4.162101 c 1.17582,-3.415048 1.39611,-4.90076 1.42294,-9.596449 0.0287,-5.02211 -0.0997,-5.836348 -1.33649,-8.475796 C 99.107867,65.34138 87.378809,57.564787 65.398783,48.601668 51.986998,43.13254 49.954419,41.941651 41.453329,34.571962 l -5.257627,-4.557894 -4.101729,4.25253 c -2.255959,2.338907 -5.564143,6.178376 -7.351527,8.532163 -3.55211,4.677738 -9.093676,13.500688 -9.093676,14.478415 0,0.723633 6.725141,3.40627 11.235185,4.481673 1.737714,0.414344 10.432587,1.321219 19.32193,2.015259 17.822182,1.391481 25.11067,2.269818 31.567267,3.80419 9.350613,2.222123 14.232327,4.98682 18.304121,10.366321 2.671166,3.529044 3.962677,7.598186 4.289007,13.51322 0.15039,2.726043 0.45436,4.771602 0.67548,4.545686 0.22111,-0.225915 1.02807,-2.229032 1.79323,-4.451368 l -2e-5,0 z"
       style="opacity:0;fill:#000000;fill-opacity:1;stroke:none" />
    <use
       height="200"
       width="200"
       transform="matrix(0.707107,0.707107,-0.707107,0.707107,431.358,-134.471)"
       id="use3341"
       inkscape:transform-center-y="48.697727"
       inkscape:transform-center-x="21.811109"
       xlink:href="#use3230"
       y="0"
       x="0" />
    <use
       height="200"
       width="200"
       transform="matrix(0,1,-1,0,831.459,75.4595)"
       id="use3343"
       inkscape:transform-center-y="26.749727"
       inkscape:transform-center-x="46.600787"
       xlink:href="#use3230"
       y="0"
       x="0" />
    <use
       height="200"
       width="200"
       transform="matrix(-0.707107,0.707107,-0.707107,-0.707107,965.931,506.817)"
       id="use3345"
       inkscape:transform-center-y="-21.811106"
       inkscape:transform-center-x="48.697726"
       xlink:href="#use3230"
       y="0"
       x="0" />
    <use
       height="200"
       width="200"
       transform="matrix(-1,0,0,-1,756,906.919)"
       id="use3347"
       inkscape:transform-center-y="-46.600783"
       inkscape:transform-center-x="26.74973"
       xlink:href="#use3230"
       y="0"
       x="0" />
    <use
       height="200"
       width="200"
       transform="matrix(-0.707107,-0.707107,0.707107,-0.707107,324.642,1041.39)"
       id="use3349"
       inkscape:transform-center-y="-48.697723"
       inkscape:transform-center-x="-21.811106"
       xlink:href="#use3230"
       y="0"
       x="0" />
    <use
       height="200"
       width="200"
       transform="matrix(0,-1,1,0,-75.4595,831.459)"
       id="use3351"
       inkscape:transform-center-y="-26.749727"
       inkscape:transform-center-x="-46.600787"
       xlink:href="#use3230"
       y="0"
       x="0" />
    <use
       height="200"
       width="200"
       transform="matrix(0.707107,-0.707107,0.707107,0.707107,-209.931,400.102)"
       id="use3353"
       inkscape:transform-center-y="21.81111"
       inkscape:transform-center-x="-48.697723"
       xlink:href="#use3230"
       y="0"
       x="0" />
    <path
       transform="translate(278,354.362)"
       d="M 200,100 C 200,155.22847 155.22847,200 100,200 44.771525,200 0,155.22847 0,100 0,44.771525 44.771525,0 100,0 155.22847,0 200,44.771525 200,100 z"
       sodipodi:ry="100"
       sodipodi:rx="100"
       sodipodi:cy="100"
       sodipodi:cx="100"
       id="path3355"
       style="fill:url(#radialGradient3363-300);fill-opacity:1;stroke:none"
       sodipodi:type="arc" />
  </g>
</svg>
